PathFileType	4	(X/Y/Z)	OpenSim_Sub10_EMGBaseline_Accel.trc
DataRate	CameraRate	NumFrames	NumMarkers	Units	OrigDataRate	OrigDataStartFrame	OrigNumFrames
100	100	17	8	m	100	1	8201
Frame#	Time	torso_imu_offset_imu	pelvis_imu_offset_imu	tibia_r_imu_offset_imu	femur_r_imu_offset_imu	tibia_l_imu_offset_imu	femur_l_imu_offset_imu	toes_r_imu_offset_imu	toes_l_imu_offset_imu
				X1	Y1	Z1	X2	Y2	Z2	X3	Y3	Z3	X4	Y4	Z4	X5	Y5	Z5	X6	Y6	Z6	X7	Y7	Z7	X8		Y8	Z8	

1	0	8.77311400	-0.26380200	7.15732500	9.25857500	0.92314900	3.69354400	9.82990400	1.00846600	1.21985500	9.67334400	0.36683400	0.63373800	9.73559500	-0.53293300	1.29164100	9.70268300	0.86206900	-1.04010900	4.80817700	-0.28560300	8.74288100	5.15400800	0.32960800	11.10335500
2	0.01000000	8.79410700	-0.24460000	7.13612700	9.24660700	0.90447000	3.72126400	9.82761400	1.02605400	1.27164400	9.70068800	0.36595400	0.65605500	9.73540400	-0.53277500	1.29314200	9.71878600	0.83133700	-1.04998200	4.81939800	-0.22589600	8.77601900	5.17758400	0.38313100	11.09420800
3	0.02000000	8.79378600	-0.22232200	7.12617700	9.23278200	0.92021200	3.75065300	9.80690200	1.02977100	1.23513900	9.68151900	0.33883900	0.65122000	9.72178600	-0.49978100	1.32809900	9.64940400	0.84854900	-1.03713400	4.83984100	-0.27355800	8.74706500	5.15180300	0.32924700	11.10438900
4	0.03000000	8.76379300	-0.27304200	7.13459300	9.23037900	0.95515800	3.75355200	9.80143000	0.99567700	1.23510500	9.67405300	0.32810000	0.63239900	9.72163000	-0.49979500	1.32923100	9.69176600	0.86390700	-1.02011800	4.82655400	-0.24831900	8.77898500	5.17523200	0.38259100	11.09532400
5	0.04000000	8.78370800	-0.23150800	7.10436400	9.24304100	0.94032900	3.72683700	9.79702500	0.97876500	1.25232200	9.67282700	0.37120900	0.63906100	9.68215900	-0.48792900	1.37347000	9.68731900	0.88384800	-1.03090800	4.79372700	-0.25997800	8.77545000	5.15187800	0.35748500	11.08661300
6	0.05000000	8.80465400	-0.21260300	7.08319000	9.21330800	0.93770800	3.75836400	9.82206200	0.99223000	1.27201300	9.72465700	0.36115200	0.62806500	9.73798800	-0.48143000	1.35415000	9.70396200	0.91269600	-1.03309900	4.83335500	-0.27104500	8.78214100	5.13468800	0.37401200	11.07928200
7	0.06000000	8.79787200	-0.24693100	7.13140400	9.23072200	0.92183600	3.75532300	9.84289800	0.93678800	1.22230500	9.67255600	0.37348800	0.64182000	9.74622200	-0.55019000	1.35411300	9.68286800	0.90313200	-1.04235800	4.82974300	-0.24981400	8.74575800	5.16098800	0.32663700	11.07574200
8	0.07000000	8.79952400	-0.27042200	7.13966800	9.24624000	0.94047600	3.75402900	9.86353100	0.93334200	1.25921300	9.71158800	0.38873400	0.65019300	9.71607000	-0.53679700	1.36484600	9.66701600	0.93129500	-1.03257500	4.80607000	-0.25263700	8.79521100	5.16072800	0.31050900	11.11562100
9	0.08000000	8.79797800	-0.29148700	7.08808700	9.22513300	0.92347600	3.73359100	9.84718300	0.95395600	1.20586200	9.70413000	0.37776900	0.63160600	9.70191400	-0.53877900	1.32553900	9.68819600	0.93921400	-1.02398900	4.81029400	-0.25458400	8.76140400	5.13540300	0.37007600	11.14072700
10	0.09000000	8.78572000	-0.27842700	7.05859800	9.22473000	0.92384200	3.73449800	9.82419500	0.97488800	1.22131700	9.67654500	0.38062200	0.61210400	9.72767900	-0.51890300	1.31638300	9.72526800	0.91826900	-1.02539600	4.83634200	-0.27263200	8.74902900	5.14866400	0.36868400	11.11016000
11	0.10000000	8.80783700	-0.28295700	7.04625600	9.22254700	0.95862200	3.73686800	9.82850900	0.99174300	1.20489300	9.67319200	0.33493900	0.64191200	9.75503300	-0.55106200	1.32341800	9.71850000	0.90327400	-0.99488700	4.79880000	-0.28217100	8.77956500	5.14374800	0.35530800	11.09045700
12	0.11000000	8.80156400	-0.31779300	7.09381300	9.24474200	0.94205700	3.75732100	9.79775800	0.99619800	1.27195400	9.67308700	0.33557500	0.64316300	9.72484700	-0.53812700	1.33421900	9.70877300	0.88656100	-1.02418100	4.84109600	-0.24247800	8.76607400	5.15836700	0.33813700	11.09900700
13	0.12000000	8.77919400	-0.27007400	7.08573700	9.20613600	0.94131600	3.74002200	9.82395300	0.97502500	1.22315500	9.69312200	0.32246000	0.64524100	9.72730000	-0.52111800	1.31830800	9.68770600	0.87716300	-1.03297800	4.81307100	-0.25598800	8.72841300	5.17654700	0.33394500	11.12790200
14	0.13000000	8.80192800	-0.27432900	7.07262500	9.22207000	0.96012500	3.73765900	9.81951200	0.95822900	1.24053000	9.69301500	0.32295900	0.64659800	9.69617400	-0.57793000	1.36135900	9.69911600	0.86888900	-1.05357800	4.82148100	-0.24702200	8.78180900	5.14031600	0.35434200	11.09207900
15	0.14000000	8.81399900	-0.24394700	7.08162300	9.25309700	0.92909000	3.70576100	9.81611100	0.95873800	1.27521500	9.71745800	0.31400800	0.61473200	9.73861700	-0.53848500	1.37529600	9.69757800	0.89102700	-1.00484500	4.82587600	-0.24873000	8.74792400	5.15724300	0.36594800	11.08182500
16	0.15000000	8.82367200	-0.23343800	7.04005600	9.23698100	0.91143200	3.70829000	9.83683900	0.90370700	1.22625500	9.69281500	0.32351500	0.64932500	9.73377600	-0.53923800	1.30268500	9.70897400	0.88266800	-1.02563100	4.83906000	-0.24159500	8.76722200	5.15327600	0.33704300	11.10140500
17	0.16000000	8.81643700	-0.24489100	7.07855600	9.23494300	0.94651100	3.71020300	9.81480600	0.94246500	1.25919700	9.67256100	0.33777100	0.64988300	9.75542000	-0.48521700	1.29376900	9.73019000	0.89014100	-1.01712900	4.81420000	-0.27609800	8.76619000	5.15851900	0.37878700	11.10323500
